{"title":"The Penguins Of Madagascar  2010 DVDRIP.H264.FEEL-FREE","uid":5744068,"size":754931253,"categoryP":"video","categoryS":"movies","magnet":"?xt=urn:btih:c6d81d7104c0cda53924640c24be5ce715b2197c&amp;dn=The+Penguins+Of+Madagascar++2010+DVDRIP.H264.FEEL-FREE&amp;tr=udp%3A%2F%2Ftracker.openbittorrent.com%3A80&amp;tr=udp%3A%2F%2Fopen.demonii.com%3A1337&amp;tr=udp%3A%2F%2Ftracker.coppersurfer.tk%3A6969&amp;tr=udp%3A%2F%2Fexodus.desync.com%3A6969","seeders":0,"leechers":1,"uploader":"neon","files":-1,"time":1281134165,"description":"Genre:Animation | Comedy | Family\nLanguage:English\nIMDb: http://www.imdb.com/title/tt1154826/\nSource:DVDR-TWiZTED\n.........................................\nGeneral\nComplete name : The Penguins Of Madagascar Happy King Julien Day 2010 DVDRIP.H264.FEEL-FREE\nFormat : MPEG-4\nFormat profile : Base Media\nCodec ID : isom\nFile size : 719 MiB\nDuration : 1h 52mn\n.........................................\n\nAided by his servants Mort and Maurice, pint-sized party animal King Julien repeatedly clashes with the penguins and other zoo animals as he invents a holiday to honor himself, steals a helmet with magical powers and misplaces his precious crown. This collection of animated episodes also finds the hilariously bossy lemur upsetting a grumpy kangaroo, becoming jealous of Mort and reluctantly handing over power to Maurice.\n\n &lt;a href=&quot;\nhttp://www.starshare.ro/bitbucket/The%20Penguins%20Of%20Madagascar%20Happy%20King%20Julien%20Day%202010%20DVDRIP.H264.FEEL-FREE.mp4_thumbs_%5B2010.08.06_22.34.52%5D.jpg&quot; rel=&quot;nofollow&quot; target=&quot;_NEW&quot;&gt;\nhttp://www.starshare.ro/bitbucket/The%20Penguins%20Of%20Madagascar%20Happy%20King%20Julien%20Day%202010%20DVDRIP.H264.FEEL-FREE.mp4_thumbs_%5B2010.08.06_22.34.52%5D.jpg&lt;/a&gt;\n\n\nVideo\nID : 1\nFormat : AVC\nFormat/Info : Advanced Video Codec\nFormat profile : &lt;a class=&quot;__cf_email__&quot; href=&quot;/cdn-cgi/l/email-protection&quot; data-cfemail=&quot;84c9e5edeac4c8b5aab7&quot;&gt;[email&amp;#160;protected]&lt;/a&gt;&lt;script data-cfhash='f9e31' type=&quot;text/javascript&quot;&gt;\n/* &lt;![CDATA[ */!function(){try{var t=&quot;currentScript&quot;in document?document.currentScript:function(){for(var t=document.getElementsByTagName(&quot;script&quot;),e=t.length;e--;)if(t[e].getAttribute(&quot;data-cfhash&quot;))return t[e]}();if(t&amp;&amp;t.previousSibling){var e,r,n,i,c=t.previousSibling,a=c.getAttribute(&quot;data-cfemail&quot;);if(a){for(e=&quot;&quot;,r=parseInt(a.substr(0,2),16),n=2;a.length-n;n+=2)i=parseInt(a.substr(n,2),16)^r,e+=String.fromCharCode(i);e=document.createTextNode(e),c.parentNode.replaceChild(e,c)}t.parentNode.removeChild(t);}}catch(u){}}()/* ]]&gt; */&lt;/script&gt;\nFormat settings, CABAC : Yes\nFormat settings, ReFrames : 1 frame\nCodec ID : avc1\nCodec ID/Info : Advanced Video Coding\nDuration : 1h 52mn\nBit rate mode : Variable\nBit rate : 723 Kbps\nWidth : 652 pixels\nHeight : 352 pixels\nDisplay aspect ratio : 1.852\nFrame rate mode : Constant\nFrame rate : 29.970 fps\nResolution : 24 bits\nColorimetry : 4:2:0\nScan type : Progressive\nBits/(Pixel*Frame) : 0.105\nStream size : 582 MiB (81%)\n........................................\nAudio\nID : 2\nFormat : AAC\nFormat/Info : Advanced Audio Codec\nFormat version : Version 4\nFormat profile : LC\nFormat settings, SBR : No\nCodec ID : 40\nDuration : 1h 52mn\nBit rate mode : Variable\nBit rate : 165 Kbps\nChannel(s) : 2 channels\nChannel positions : L R\nSampling rate : 48.0 KHz\nResolution : 16 bits\nStream size : 133 MiB (19%)","torrent":{"xt":"urn:btih:c6d81d7104c0cda53924640c24be5ce715b2197c","amp;dn":"The+Penguins+Of+Madagascar++2010+DVDRIP.H264.FEEL-FREE","amp;tr":["udp%3A%2F%2Ftracker.openbittorrent.com%3A80","udp%3A%2F%2Fopen.demonii.com%3A1337","udp%3A%2F%2Ftracker.coppersurfer.tk%3A6969","udp%3A%2F%2Fexodus.desync.com%3A6969"],"infoHash":"c6d81d7104c0cda53924640c24be5ce715b2197c","infoHashBuffer":{"type":"Buffer","data":[198,216,29,113,4,192,205,165,57,36,100,12,36,190,92,231,21,178,25,124]},"announce":[],"urlList":[]}}